# xmcd
#
# Track frame offsets: 
#        150
#        11793
#        35146
#        49831
#        62467
#        88536
#        104042
#        118965
#        131534
#        146436
#        158637
#        171868
#        193897
#        213081
#
# Disc length: 2993 seconds
#
# Revision: 0
# Processed by: cddbd v1.5.2PL0 Copyright (c) Steve Scherf et al.
# Submitted via: ExactAudioCopy v0.99pb5
#
DISCID=ca0baf0e
DTITLE=The Little Red Toasters - The Little Red Toasters and Friends
DYEAR=1900
DGENRE=Blues
TTITLE0=Crazy
TTITLE1=Hoochie Koochie Man
TTITLE2=Polk Salad Annie
TTITLE3=Crossroads
TTITLE4=Long Love
TTITLE5=Put your shoe on the other foot
TTITLE6=Messin with the kid
TTITLE7=Dust my broom
TTITLE8=Fire in the 7th heaven
TTITLE9=Caledonia
TTITLE10=Honey Hush
TTITLE11=Bring me some water
TTITLE12=Watch
TTITLE13=Toasted
EXTD=
EXTT0=
EXTT1=
EXTT2=
EXTT3=
EXTT4=
EXTT5=
EXTT6=
EXTT7=
EXTT8=
EXTT9=
EXTT10=
EXTT11=
EXTT12=
EXTT13=
PLAYORDER=
